<svg width="14" height="15" viewBox="0 0 14 15" fill="none" xmlns="http://www.w3.org/2000/svg">
<g style="mix-blend-mode:darken">
<rect y="0.324493" width="14" height="14.3162" fill="#87888C"/>
</g>
<path d="M7 7.48262C7.79565 7.48262 8.55871 7.15941 9.12132 6.58409C9.68393 6.00878 10 5.22848 10 4.41486C10 3.60124 9.68393 2.82095 9.12132 2.24563C8.55871 1.67032 7.79565 1.34711 7 1.34711C6.20435 1.34711 5.44129 1.67032 4.87868 2.24563C4.31607 2.82095 4 3.60124 4 4.41486C4 5.22848 4.31607 6.00878 4.87868 6.58409C5.44129 7.15941 6.20435 7.48262 7 7.48262ZM9 4.41486C9 4.95727 8.78929 5.47747 8.41421 5.86101C8.03914 6.24456 7.53043 6.46003 7 6.46003C6.46957 6.46003 5.96086 6.24456 5.58579 5.86101C5.21071 5.47747 5 4.95727 5 4.41486C5 3.87245 5.21071 3.35225 5.58579 2.96871C5.96086 2.58516 6.46957 2.36969 7 2.36969C7.53043 2.36969 8.03914 2.58516 8.41421 2.96871C8.78929 3.35225 9 3.87245 9 4.41486ZM13 12.5955C13 13.6181 12 13.6181 12 13.6181H2C2 13.6181 1 13.6181 1 12.5955C1 11.573 2 8.5052 7 8.5052C12 8.5052 13 11.573 13 12.5955ZM12 12.5914C11.999 12.3399 11.846 11.5832 11.168 10.8899C10.516 10.2231 9.289 9.52779 7 9.52779C4.71 9.52779 3.484 10.2231 2.832 10.8899C2.154 11.5832 2.002 12.3399 2 12.5914H12Z" fill="#87888C"/>
</svg>
