<svg width="14" height="15" viewBox="0 0 14 15" fill="none" xmlns="http://www.w3.org/2000/svg">
<g style="mix-blend-mode:darken">
<rect y="0.348022" width="14" height="14.3162" fill="#87888C"/>
</g>
<path d="M4.36842 11.4779L4.80437 11.7165C5.47943 12.0855 6.23329 12.278 6.99876 12.2768H7.00076C7.92362 12.2768 8.82576 11.9969 9.59309 11.4726C10.3604 10.9483 10.9585 10.2031 11.3117 9.33126C11.6648 8.45939 11.7572 7.5 11.5772 6.57443C11.3971 5.64886 10.9527 4.79867 10.3002 4.13137C9.64761 3.46406 8.81619 3.00963 7.91106 2.82552C7.00593 2.64141 6.06774 2.7359 5.21512 3.09704C4.36251 3.45818 3.63377 4.06975 3.12105 4.85442C2.60834 5.63908 2.33468 6.56159 2.33468 7.5053V7.50734C2.3335 8.29009 2.52173 9.06099 2.88261 9.75129L3.11591 10.1971L2.75729 11.8446L4.36842 11.4779ZM1.00151 13.64L1.70676 10.3941C1.21878 9.45923 0.975937 8.41106 1.00188 7.35171C1.02783 6.29235 1.32167 5.25793 1.8548 4.34924C2.38792 3.44054 3.14214 2.68855 4.04397 2.16654C4.94579 1.64453 5.96447 1.37029 7.00076 1.37056C8.59185 1.37056 10.1178 2.0169 11.2429 3.16738C12.3679 4.31787 13 5.87826 13 7.5053C13.0003 8.56498 12.7321 9.60667 12.2216 10.5289C11.7111 11.4511 10.9757 12.2223 10.0871 12.7675C9.19848 13.3126 8.18691 13.6131 7.15095 13.6397C6.11499 13.6662 5.08998 13.4179 4.17578 12.9189L1.00151 13.64Z" fill="#87888C"/>
</svg>
