<svg width="14" height="15" viewBox="0 0 14 15" fill="none" xmlns="http://www.w3.org/2000/svg">
<g style="mix-blend-mode:darken">
<rect y="0.133942" width="14" height="14.3162" fill="#87888C"/>
</g>
<path d="M12.5265 9.856H4.56081L4.96076 8.92963L11.6062 8.91594C11.8309 8.91594 12.0235 8.7334 12.0637 8.48089L12.9839 2.62299C13.008 2.46936 12.9719 2.31116 12.8836 2.19099C12.84 2.13185 12.7856 2.08421 12.7241 2.05138C12.6627 2.01854 12.5957 2.0013 12.5278 2.00085L4.07391 1.9689L4.00167 1.58253C3.95619 1.33611 3.7609 1.15662 3.53885 1.15662H1.47219C1.34696 1.15662 1.22685 1.21319 1.1383 1.31389C1.04975 1.41459 1 1.55117 1 1.69358C1 1.83599 1.04975 1.97257 1.1383 2.07327C1.22685 2.17397 1.34696 2.23054 1.47219 2.23054H3.15628L3.47197 3.93726L4.24914 8.21622L3.24858 10.0735C3.19662 10.1533 3.16532 10.248 3.15823 10.3469C3.15114 10.4458 3.16853 10.545 3.20845 10.6333C3.28871 10.8143 3.45056 10.9284 3.62981 10.9284H4.46985C4.29076 11.1989 4.19403 11.5284 4.19429 11.8669C4.19429 12.7279 4.80961 13.4276 5.56672 13.4276C6.32382 13.4276 6.93914 12.7279 6.93914 11.8669C6.93914 11.5277 6.84015 11.1976 6.66358 10.9284H8.81853C8.63944 11.1989 8.54271 11.5284 8.54297 11.8669C8.54297 12.7279 9.15829 13.4276 9.91539 13.4276C10.6725 13.4276 11.2878 12.7279 11.2878 11.8669C11.2878 11.5277 11.1888 11.1976 11.0123 10.9284H12.5278C12.7873 10.9284 13 10.6881 13 10.3914C12.9992 10.2492 12.949 10.113 12.8603 10.0127C12.7716 9.91242 12.6516 9.85608 12.5265 9.856ZM4.27054 3.02762L11.9727 3.05652L11.2183 7.86027L5.1681 7.87244L4.27054 3.02762ZM5.56672 12.3476C5.33397 12.3476 5.14402 12.1316 5.14402 11.8669C5.14402 11.6023 5.33397 11.3863 5.56672 11.3863C5.79947 11.3863 5.98941 11.6023 5.98941 11.8669C5.98941 11.9944 5.94488 12.1167 5.86561 12.2068C5.78633 12.297 5.67882 12.3476 5.56672 12.3476ZM9.91539 12.3476C9.68264 12.3476 9.4927 12.1316 9.4927 11.8669C9.4927 11.6023 9.68264 11.3863 9.91539 11.3863C10.1481 11.3863 10.3381 11.6023 10.3381 11.8669C10.3381 11.9944 10.2936 12.1167 10.2143 12.2068C10.135 12.297 10.0275 12.3476 9.91539 12.3476Z" fill="#87888C"/>
</svg>
