<svg width="14" height="16" viewBox="0 0 14 16" fill="none" xmlns="http://www.w3.org/2000/svg">
<g style="mix-blend-mode:darken">
<rect y="0.752747" width="14" height="14.3162" fill="#87888C"/>
</g>
<path d="M5.2852 14.0463C4.29282 13.7311 3.39405 13.1479 2.6764 12.3535C2.9073 12.0622 3.05124 11.7041 3.0898 11.3253C3.12835 10.9464 3.05977 10.5639 2.89283 10.2267C2.72589 9.88954 2.46819 9.61303 2.15269 9.43255C1.83719 9.25208 1.47825 9.17585 1.1218 9.21364C1.0406 8.79046 0.999789 8.35965 1 7.92775C1 7.2607 1.096 6.61728 1.2748 6.01279H1.3C1.60593 6.0129 1.90683 5.93005 2.1743 5.77207C2.44177 5.61409 2.66698 5.38619 2.82866 5.10989C2.99034 4.83359 3.08316 4.51801 3.09836 4.19295C3.11355 3.86789 3.05062 3.54407 2.9155 3.25207C3.61888 2.55529 4.46952 2.04879 5.3956 1.77532C5.54631 2.09014 5.77595 2.35447 6.05911 2.53905C6.34227 2.72364 6.66791 2.82129 7 2.82121C7.33209 2.82129 7.65773 2.72364 7.94089 2.53905C8.22405 2.35447 8.45369 2.09014 8.6044 1.77532C9.53048 2.04879 10.3811 2.55529 11.0845 3.25207C10.9484 3.54611 10.8855 3.8724 10.9019 4.1997C10.9182 4.527 11.0133 4.84436 11.1779 5.12139C11.3426 5.39843 11.5713 5.62587 11.8422 5.78194C12.1131 5.93802 12.4171 6.0175 12.7252 6.01279C12.9079 6.63251 13.0006 7.27827 13 7.92775C13 8.36818 12.958 8.79841 12.8782 9.21364C12.5217 9.17585 12.1628 9.25208 11.8473 9.43255C11.5318 9.61303 11.2741 9.88954 11.1072 10.2267C10.9402 10.5639 10.8716 10.9464 10.9102 11.3253C10.9488 11.7041 11.0927 12.0622 11.3236 12.3535C10.6059 13.1479 9.70718 13.7311 8.7148 14.0463C8.59826 13.6599 8.36941 13.3229 8.06123 13.0837C7.75304 12.8446 7.38145 12.7157 7 12.7157C6.61855 12.7157 6.24695 12.8446 5.93877 13.0837C5.63059 13.3229 5.40173 13.6599 5.2852 14.0463Z" stroke="#87888C" stroke-width="1.2" stroke-linejoin="round"/>
<path d="M7.00039 10.1614C7.27617 10.1614 7.54924 10.1036 7.80402 9.99129C8.05881 9.87902 8.29031 9.71445 8.48531 9.507C8.68032 9.29954 8.835 9.05325 8.94054 8.7822C9.04607 8.51114 9.10039 8.22063 9.10039 7.92724C9.10039 7.63385 9.04607 7.34334 8.94054 7.07228C8.835 6.80123 8.68032 6.55494 8.48531 6.34749C8.29031 6.14003 8.05881 5.97547 7.80402 5.86319C7.54924 5.75092 7.27617 5.69313 7.00039 5.69313C6.44344 5.69313 5.90929 5.92851 5.51547 6.34749C5.12164 6.76646 4.90039 7.33472 4.90039 7.92724C4.90039 8.51977 5.12164 9.08802 5.51547 9.507C5.90929 9.92597 6.44344 10.1614 7.00039 10.1614V10.1614Z" stroke="#87888C" stroke-width="1.2" stroke-linejoin="round"/>
</svg>
